<svg width="35" height="35" viewBox="0 0 35 35" fill="none" xmlns="http://www.w3.org/2000/svg">
<path fill-rule="evenodd" clip-rule="evenodd" d="M12.0312 2.1875H2.1875V12.0312H4.375V4.375H12.0312V2.1875ZM2.1875 22.9688V32.8125H12.0312V30.625H4.375V22.9688H2.1875ZM32.8125 2.1875V12.0312H30.625V4.375H22.9688V2.1875H32.8125ZM22.9688 32.8125H32.8125V22.9688H30.625V30.625H22.9688V32.8125ZM18.0359 5.61101L27.8797 11.0798C28.0486 11.1747 28.1893 11.3129 28.2873 11.4801C28.3853 11.6473 28.4372 11.8375 28.4375 12.0313V22.9688C28.4394 23.1605 28.3909 23.3493 28.2968 23.5163C28.2027 23.6833 28.0664 23.8226 27.9016 23.9204L18.0578 29.3891C17.8915 29.4851 17.7029 29.5357 17.5109 29.5357C17.3189 29.5357 17.1303 29.4851 16.9641 29.3891L7.12032 23.9204C6.95137 23.8254 6.81069 23.6873 6.71267 23.5201C6.61466 23.3529 6.56284 23.1626 6.5625 22.9688V12.0313C6.56062 11.8397 6.60915 11.6509 6.70321 11.4839C6.79727 11.3169 6.93356 11.1775 7.09844 11.0798L16.9422 5.61101C17.1085 5.51502 17.2971 5.46448 17.4891 5.46448C17.6811 5.46448 17.8697 5.51502 18.0359 5.61101ZM25.0906 12.0313L17.5 7.80945L9.90938 12.0313L17.5 16.2532L25.0906 12.0313ZM16.4063 18.1454L8.75 13.8907V22.3235L16.4063 26.5782V18.1454ZM18.5938 18.1454V26.5782L26.25 22.3235V13.8907L18.5938 18.1454Z" fill="#304A63"/>
</svg>
