<svg width="33" height="33" viewBox="0 0 33 33" fill="none" xmlns="http://www.w3.org/2000/svg">
<path d="M27.8438 3.09375H5.15625C4.60924 3.09375 4.08464 3.31105 3.69784 3.69784C3.31105 4.08464 3.09375 4.60924 3.09375 5.15625V27.8438C3.09375 28.3908 3.31105 28.9154 3.69784 29.3022C4.08464 29.689 4.60924 29.9062 5.15625 29.9062H27.8438C28.3908 29.9062 28.9154 29.689 29.3022 29.3022C29.689 28.9154 29.9062 28.3908 29.9062 27.8438V5.15625C29.9062 4.60924 29.689 4.08464 29.3022 3.69784C28.9154 3.31105 28.3908 3.09375 27.8438 3.09375ZM27.8438 5.15625V9.28125H5.15625V5.15625H27.8438ZM17.5312 11.3438H27.8438V18.5625H17.5312V11.3438ZM15.4688 18.5625H5.15625V11.3438H15.4688V18.5625ZM5.15625 20.625H15.4688V27.8438H5.15625V20.625ZM17.5312 27.8438V20.625H27.8438V27.8438H17.5312Z" fill="#304A63"/>
</svg>
