<svg width="35" height="35" viewBox="0 0 35 35" fill="none" xmlns="http://www.w3.org/2000/svg">
<path fill-rule="evenodd" clip-rule="evenodd" d="M4.375 2.1875H24.0625C24.6421 2.18917 25.1976 2.42018 25.6074 2.83005C26.0173 3.23993 26.2483 3.79535 26.25 4.375V16.4062H24.0625V4.375H4.375V30.625H13.125V32.8125H4.375C3.79535 32.8108 3.23993 32.5798 2.83005 32.1699C2.42018 31.7601 2.18917 31.2046 2.1875 30.625V4.375C2.18917 3.79535 2.42018 3.23993 2.83005 2.83005C3.23993 2.42018 3.79535 2.18917 4.375 2.1875ZM20.7812 7.65625H7.65625V9.84375H20.7812V7.65625ZM7.65625 13.125H20.7812V15.3125H7.65625V13.125ZM13.125 18.5938H7.65625V20.7812H13.125V18.5938ZM29.2144 21.4075C30.7264 22.4726 31.8926 23.958 32.5685 25.6796L32.8125 26.25L32.5685 26.8204C31.8926 28.542 30.7264 30.0274 29.2144 31.0925C27.7024 32.1576 25.9111 32.7557 24.0625 32.8125C22.2139 32.7557 20.4226 32.1576 18.9106 31.0925C17.3986 30.0274 16.2324 28.542 15.5565 26.8204L15.3125 26.25L15.5565 25.6796C16.2324 23.958 17.3986 22.4726 18.9106 21.4075C20.4226 20.3424 22.2139 19.7443 24.0625 19.6875C25.9111 19.7443 27.7024 20.3424 29.2144 21.4075ZM21.6319 29.8877C22.3513 30.3684 23.1972 30.625 24.0625 30.625C25.2224 30.6237 26.3345 30.1623 27.1547 29.3422C27.9748 28.522 28.4362 27.4099 28.4375 26.25C28.4375 25.3847 28.1809 24.5388 27.7002 23.8194C27.2194 23.0999 26.5362 22.5392 25.7367 22.208C24.9373 21.8769 24.0576 21.7903 23.209 21.9591C22.3603 22.1279 21.5808 22.5446 20.9689 23.1564C20.3571 23.7683 19.9404 24.5478 19.7716 25.3965C19.6028 26.2451 19.6894 27.1248 20.0205 27.9242C20.3517 28.7237 20.9124 29.4069 21.6319 29.8877ZM26.25 26.25C26.25 27.4581 25.2706 28.4375 24.0625 28.4375C22.8544 28.4375 21.875 27.4581 21.875 26.25C21.875 25.0419 22.8544 24.0625 24.0625 24.0625C25.2706 24.0625 26.25 25.0419 26.25 26.25Z" fill="#304A63"/>
</svg>
