<svg width="38" height="38" viewBox="0 0 38 38" fill="none" xmlns="http://www.w3.org/2000/svg">
<path fill-rule="evenodd" clip-rule="evenodd" d="M4.75 11.875H19C19.6297 11.8743 20.2333 11.6238 20.6786 11.1786C21.1238 10.7333 21.3743 10.1297 21.375 9.5V4.75C21.3743 4.12033 21.1238 3.51666 20.6786 3.07142C20.2333 2.62618 19.6297 2.37572 19 2.375H4.75C4.12033 2.37572 3.51666 2.62618 3.07142 3.07142C2.62618 3.51666 2.37572 4.12033 2.375 4.75V9.5C2.37572 10.1297 2.62618 10.7333 3.07142 11.1786C3.51666 11.6238 4.12033 11.8743 4.75 11.875ZM4.75 9.5V4.75H19V9.5H4.75ZM33.25 23.75H14.25C13.6203 23.7493 13.0167 23.4988 12.5714 23.0536C12.1262 22.6083 11.8757 22.0047 11.875 21.375V16.625C11.8757 15.9953 12.1262 15.3917 12.5714 14.9464C13.0167 14.5012 13.6203 14.2507 14.25 14.25H33.25C33.8797 14.2507 34.4833 14.5012 34.9286 14.9464C35.3738 15.3917 35.6243 15.9953 35.625 16.625V21.375C35.6243 22.0047 35.3738 22.6083 34.9286 23.0536C34.4833 23.4988 33.8797 23.7493 33.25 23.75ZM14.25 16.625V21.375H33.25V16.625H14.25ZM14.25 35.625H4.75C4.12033 35.6243 3.51666 35.3738 3.07142 34.9286C2.62618 34.4833 2.37572 33.8797 2.375 33.25V28.5C2.37572 27.8703 2.62618 27.2667 3.07142 26.8214C3.51666 26.3762 4.12033 26.1257 4.75 26.125H14.25C14.8797 26.1257 15.4833 26.3762 15.9286 26.8214C16.3738 27.2667 16.6243 27.8703 16.625 28.5V33.25C16.6243 33.8797 16.3738 34.4833 15.9286 34.9286C15.4833 35.3738 14.8797 35.6243 14.25 35.625ZM4.75 28.5V33.25H14.25V28.5H4.75Z" fill="#304A63"/>
</svg>
