<svg width="34" height="34" viewBox="0 0 34 34" fill="none" xmlns="http://www.w3.org/2000/svg">
<path d="M17.6506 2.3521C17.462 2.20493 17.2296 2.125 16.9904 2.125C16.7512 2.125 16.5188 2.20493 16.3302 2.3521L1.0625 14.258L2.38287 15.928L4.25 14.4721V27.6249C4.25115 28.1882 4.4754 28.728 4.87367 29.1263C5.27193 29.5245 5.81177 29.7488 6.375 29.7499H27.625C28.1883 29.7489 28.7282 29.5247 29.1265 29.1264C29.5247 28.7281 29.749 28.1882 29.75 27.6249V14.4818L31.6171 15.9374L32.9375 14.2674L17.6506 2.3521ZM19.125 27.6249H14.875V19.1249H19.125V27.6249ZM21.25 27.6249V19.1249C21.2494 18.5615 21.0253 18.0214 20.6269 17.623C20.2285 17.2247 19.6884 17.0006 19.125 16.9999H14.875C14.3116 17.0005 13.7714 17.2246 13.373 17.623C12.9746 18.0213 12.7506 18.5615 12.75 19.1249V27.6249H6.375V12.8153L17 4.53841L27.625 12.8264V27.6249H21.25Z" fill="#304A63"/>
</svg>
