<svg width="35" height="35" viewBox="0 0 35 35" fill="none" xmlns="http://www.w3.org/2000/svg">
<path fill-rule="evenodd" clip-rule="evenodd" d="M24.0625 5.46875H27.3438C27.9239 5.46875 28.4803 5.69922 28.8905 6.10945C29.3008 6.51969 29.5312 7.07609 29.5312 7.65625V30.625C29.5312 31.2052 29.3008 31.7616 28.8905 32.1718C28.4803 32.582 27.9239 32.8125 27.3438 32.8125H7.65625C7.07609 32.8125 6.51969 32.582 6.10945 32.1718C5.69922 31.7616 5.46875 31.2052 5.46875 30.625V7.65625C5.46875 7.07609 5.69922 6.51969 6.10945 6.10945C6.51969 5.69922 7.07609 5.46875 7.65625 5.46875H10.9375V4.375C10.9375 3.79484 11.168 3.23844 11.5782 2.8282C11.9884 2.41797 12.5448 2.1875 13.125 2.1875H21.875C22.4552 2.1875 23.0116 2.41797 23.4218 2.8282C23.832 3.23844 24.0625 3.79484 24.0625 4.375V5.46875ZM21.875 4.375H13.125V8.75H21.875V4.375ZM7.65625 30.625H27.3438V7.65625H24.0625V10.9375H10.9375V7.65625H7.65625V30.625ZM11.3859 18.1454L15.3125 22.072L23.6141 13.7595L25.1562 15.3126L15.3125 25.1563L9.84375 19.6876L11.3859 18.1454Z" fill="#304A63"/>
</svg>
