<svg width="35" height="35" viewBox="0 0 35 35" fill="none" xmlns="http://www.w3.org/2000/svg">
<path fill-rule="evenodd" clip-rule="evenodd" d="M29.5314 17.4996V18.3309L31.5986 20.2231C31.9801 20.5576 32.2335 21.0144 32.3153 21.5153C32.3972 22.0161 32.3023 22.5298 32.047 22.9684L29.5532 27.3434C29.3614 27.6756 29.0857 27.9515 28.7535 28.1435C28.4214 28.3355 28.0447 28.4367 27.6611 28.4371C27.4233 28.4389 27.1869 28.402 26.9611 28.3277L24.3142 27.4309C23.8516 27.7359 23.3693 28.0099 22.8704 28.2512L22.3126 31.0074C22.2126 31.511 21.9387 31.9633 21.5387 32.2853C21.1388 32.6072 20.6384 32.7782 20.1251 32.7684H14.9626C14.4493 32.7782 13.9489 32.6072 13.549 32.2853C13.1491 31.9633 12.8751 31.511 12.7751 31.0074L12.2173 28.2512C11.722 28.0098 11.2434 27.7358 10.7845 27.4309L8.12669 28.3277C7.90085 28.402 7.66441 28.4389 7.42669 28.4371C7.04308 28.4367 6.66632 28.3355 6.33421 28.1435C6.00209 27.9515 5.7263 27.6756 5.5345 27.3434L2.95325 22.9684C2.68626 22.5255 2.58481 22.0023 2.6669 21.4917C2.749 20.9812 3.00932 20.5162 3.40169 20.1793L5.46887 18.3418V17.4996V16.6684L3.40169 14.7762C3.0201 14.4416 2.76671 13.9848 2.6849 13.484C2.60309 12.9832 2.69795 12.4695 2.95325 12.0309L5.5345 7.65587C5.7263 7.32366 6.00209 7.04772 6.33421 6.85575C6.66632 6.66378 7.04308 6.56251 7.42669 6.56212C7.66203 6.54611 7.89842 6.56827 8.12669 6.62775L10.7298 7.56837C11.1924 7.26338 11.6747 6.98934 12.1736 6.74806L12.7314 3.99181C12.8314 3.48825 13.1053 3.03591 13.5053 2.71398C13.9052 2.39205 14.4056 2.22103 14.9189 2.23087H20.0376C20.5509 2.22103 21.0513 2.39205 21.4512 2.71398C21.8512 3.03591 22.1251 3.48825 22.2251 3.99181L22.7829 6.74806C23.2782 6.9894 23.7569 7.26344 24.2157 7.56837L26.8736 6.6715C27.0994 6.59724 27.3358 6.5603 27.5736 6.56212C27.9572 6.56251 28.3339 6.66378 28.666 6.85575C28.9982 7.04772 29.2739 7.32366 29.4657 7.65587L32.047 12.0309C32.3178 12.4701 32.4246 12.9909 32.3486 13.5013C32.2725 14.0117 32.0185 14.4787 31.6314 14.8199L29.5314 16.6574V17.4996ZM23.822 24.9809L27.5736 26.2496L30.1548 21.8746L27.1798 19.1731C27.382 18.0409 27.382 16.8818 27.1798 15.7496L30.1548 13.1246L27.5736 8.74962L23.8111 9.97462C22.9298 9.24087 21.9315 8.6604 20.8579 8.25743L20.0814 4.37462H14.9189L14.1423 8.30118C13.0602 8.69302 12.0565 9.2745 11.1782 10.0184L7.42669 8.74962L4.84544 13.1246L7.82044 15.8262C7.6182 16.9584 7.6182 18.1174 7.82044 19.2496L4.84544 21.8746L7.42669 26.2496L11.1892 25.0246C12.0704 25.7584 13.0687 26.3388 14.1423 26.7418L14.9189 30.6246H20.0814L20.8579 26.6981C21.9401 26.3062 22.9438 25.7247 23.822 24.9809ZM13.8542 22.9562C14.9334 23.6773 16.2022 24.0622 17.5001 24.0622C18.3644 24.071 19.2217 23.9072 20.0218 23.5805C20.822 23.2539 21.5489 22.7708 22.1601 22.1597C22.7712 21.5485 23.2543 20.8216 23.5809 20.0214C23.9076 19.2213 24.0714 18.364 24.0626 17.4997C24.0626 16.2018 23.6777 14.933 22.9566 13.8538C22.2355 12.7746 21.2106 11.9335 20.0115 11.4368C18.8123 10.9401 17.4928 10.8101 16.2198 11.0633C14.9468 11.3165 13.7775 11.9415 12.8597 12.8593C11.9419 13.7771 11.3169 14.9464 11.0637 16.2194C10.8105 17.4924 10.9405 18.8119 11.4372 20.0111C11.9339 21.2102 12.775 22.2351 13.8542 22.9562ZM15.8101 13.4303C16.347 13.2152 16.9219 13.1112 17.5001 13.1247C18.0783 13.1112 18.6533 13.2152 19.1902 13.4303C19.727 13.6454 20.2147 13.9672 20.6237 14.3761C21.0327 14.7851 21.3544 15.2728 21.5695 15.8097C21.7846 16.3466 21.8886 16.9215 21.8751 17.4997C21.8886 18.0779 21.7846 18.6529 21.5695 19.1898C21.3544 19.7266 21.0327 20.2143 20.6237 20.6233C20.2147 21.0323 19.727 21.354 19.1902 21.5691C18.6533 21.7842 18.0783 21.8882 17.5001 21.8747C16.9219 21.8882 16.347 21.7842 15.8101 21.5691C15.2732 21.354 14.7855 21.0323 14.3765 20.6233C13.9676 20.2143 13.6458 19.7266 13.4307 19.1898C13.2156 18.6529 13.1116 18.0779 13.1251 17.4997C13.1116 16.9215 13.2156 16.3466 13.4307 15.8097C13.6458 15.2728 13.9676 14.7851 14.3765 14.3761C14.7855 13.9672 15.2732 13.6454 15.8101 13.4303Z" fill="#304A63"/>
</svg>
